<?xml version="1.0" encoding="UTF-8" standalone="no"?><!DOCTYPE svg PUBLIC "-//W3C//DTD SVG 1.1//EN" "http://www.w3.org/Graphics/SVG/1.1/DTD/svg11.dtd"><svg width="100%" height="100%" viewBox="0 0 64 55" version="1.1" xmlns="http://www.w3.org/2000/svg" xmlns:xlink="http://www.w3.org/1999/xlink" xml:space="preserve" xmlns:serif="http://www.serif.com/" style="fill-rule:evenodd;clip-rule:evenodd;stroke-linejoin:round;stroke-miterlimit:2;"><g><path d="M24.776,28.652c2.249,-3.514 4.442,-6.766 6.194,-9.152c1.505,9.471 3.302,16.093 4.23,24.27c0.12,1.058 0.959,1.63 1.81,1.647c0.919,0.019 1.8,-0.566 1.886,-1.712c0,-0 0,-0.001 0,-0.001c0.207,-2.77 1.347,-9.996 2.956,-17.086c1.191,4.124 3.023,9.651 5.572,15.902c0.229,0.56 0.352,0.897 0.396,0.979c0.169,0.315 0.362,0.48 0.475,0.57c0.453,0.357 0.899,0.409 1.262,0.377c0.173,-0.015 1.752,-0.297 1.621,-2.034c-0.093,-1.226 -1.385,-11.745 6.462,-40.158c0.148,-0.536 0.349,-1.118 0.641,-2.254l-55.614,0c-1.473,0 -2.667,1.194 -2.667,2.667c-0,0 -0,50.084 -0,50.084c-0,1.473 1.194,2.667 2.667,2.667l32.533,-0c-0.556,-1.119 -1.011,-2.007 -1.279,-2.559c-2.647,-5.446 -6.082,-13.584 -9.145,-24.207Zm-21.215,-25.091l50.034,-0c-3.715,13.888 -5.203,23.698 -5.764,30.019c-2.508,-7.1 -3.83,-12.401 -4.117,-14.319c-0,0 -0,-0 -0,-0.001c-0.296,-1.971 -3.067,-2.151 -3.614,-0.232c0,-0 0,-0 0,-0c-1.206,4.237 -2.28,9.129 -3.103,13.497c-0.993,-5.149 -2.134,-10.516 -3.078,-17.42c-0,-0 -0,-0.001 -0,-0.001c-0.105,-0.762 -0.566,-1.22 -1.1,-1.45c-0.631,-0.271 -1.518,-0.202 -2.126,0.47c-1.561,1.724 -4.242,5.472 -7.178,9.93c-0.931,-3.585 -1.809,-7.417 -2.596,-11.488c-0.37,-1.918 -2.995,-2.077 -3.591,-0.218c-0.703,2.186 -6.044,17.34 -6.346,32.516c-0.008,0.364 0.215,1.706 1.689,1.825c0.981,0.08 1.881,-0.459 2.326,-1.341l-0,0c1.771,-3.511 4.444,-8.131 7.257,-12.689c2.439,7.921 5.034,14.351 7.257,19.198l-25.95,0l-0,-48.296Zm15.213,16.081c-1.317,4.575 -2.936,11.129 -3.74,18.181c1.781,-3.113 3.832,-6.5 5.88,-9.736c-0.744,-2.669 -1.463,-5.485 -2.14,-8.445Z" style="fill:#fff;"/><path d="M64,41.847c-0,-1.674 -1.359,-3.032 -3.032,-3.032c-1.674,-0 -3.033,1.358 -3.033,3.032c0,1.674 1.359,3.033 3.033,3.033c1.673,-0 3.032,-1.359 3.032,-3.033Z" style="fill:#fff;"/></g></svg>