<?xml version="1.0" encoding="UTF-8" standalone="no"?><!DOCTYPE svg PUBLIC "-//W3C//DTD SVG 1.1//EN" "http://www.w3.org/Graphics/SVG/1.1/DTD/svg11.dtd"><svg width="100%" height="100%" viewBox="0 0 24 24" version="1.1" xmlns="http://www.w3.org/2000/svg" xmlns:xlink="http://www.w3.org/1999/xlink" xml:space="preserve" xmlns:serif="http://www.serif.com/" style="fill-rule:evenodd;clip-rule:evenodd;stroke-linejoin:round;stroke-miterlimit:2;"><g id="AW"></g><g id="Layer-4" serif:id="Layer 4"><g><path d="M10.266,12.226c0.54,-0.843 1.066,-1.623 1.487,-2.196c0.361,2.273 0.792,3.862 1.015,5.825c0.029,0.253 0.23,0.391 0.434,0.395c0.221,0.004 0.432,-0.136 0.453,-0.411c0,-0 0,-0 0,-0c0.05,-0.665 0.323,-2.399 0.71,-4.101c0.285,0.99 0.725,2.316 1.337,3.817c0.055,0.134 0.084,0.215 0.095,0.235c0.04,0.075 0.087,0.115 0.114,0.136c0.108,0.086 0.215,0.098 0.303,0.091c0.041,-0.004 0.42,-0.071 0.389,-0.488c-0.022,-0.295 -0.333,-2.819 1.551,-9.638c0.035,-0.129 0.083,-0.269 0.153,-0.541l-13.347,-0c-0.353,-0 -0.64,0.286 -0.64,0.64c0,-0 0,12.02 0,12.02c0,0.354 0.287,0.64 0.64,0.64l7.808,0c-0.133,-0.268 -0.243,-0.481 -0.307,-0.614c-0.635,-1.307 -1.46,-3.26 -2.195,-5.81Zm-5.091,-6.022l12.008,0c-0.892,3.334 -1.249,5.688 -1.384,7.205c-0.602,-1.704 -0.919,-2.976 -0.988,-3.436c0,-0.001 0,-0.001 0,-0.001c-0.071,-0.473 -0.736,-0.516 -0.867,-0.055c0,-0 0,-0 0,-0c-0.29,1.016 -0.547,2.19 -0.745,3.239c-0.238,-1.236 -0.512,-2.524 -0.738,-4.181c-0,-0 -0.001,-0 -0.001,-0c-0.025,-0.183 -0.135,-0.293 -0.264,-0.348c-0.151,-0.065 -0.364,-0.049 -0.51,0.113c-0.374,0.413 -1.018,1.313 -1.722,2.383c-0.224,-0.861 -0.435,-1.78 -0.623,-2.757c-0.089,-0.461 -0.719,-0.499 -0.862,-0.053c-0.169,0.525 -1.451,4.162 -1.523,7.804c-0.002,0.088 0.051,0.41 0.405,0.438c0.236,0.02 0.451,-0.11 0.558,-0.322l0,0c0.425,-0.842 1.067,-1.951 1.742,-3.045c0.585,1.901 1.208,3.444 1.742,4.608l-6.228,-0l-0,-11.592Zm3.651,3.86c-0.316,1.098 -0.705,2.671 -0.898,4.363c0.427,-0.747 0.92,-1.56 1.411,-2.336c-0.178,-0.641 -0.351,-1.317 -0.513,-2.027Z" style="fill:#fff;"/><path d="M19.68,15.393c-0,-0.402 -0.326,-0.728 -0.728,-0.728c-0.401,0 -0.728,0.326 -0.728,0.728c0,0.402 0.327,0.728 0.728,0.728c0.402,-0 0.728,-0.326 0.728,-0.728Z" style="fill:#fff;"/></g></g></svg>