<svg xmlns="http://www.w3.org/2000/svg" xml:space="preserve" fill-rule="evenodd" stroke-linejoin="round" stroke-miterlimit="2" clip-rule="evenodd" height="48" width="58" fill="white" viewBox="0 0 200 200"><path d="M1902.943 2272.298c110.571-172.675 218.35-332.521 304.455-449.813 73.95 465.492 162.262 790.959 207.904 1192.842 5.896 52 47.125 80.109 88.938 80.963 45.175.92 88.475-27.792 92.704-84.154 0-.009 0-.013.004-.021 10.18-136.163 66.2-491.292 145.288-839.776 58.504 202.721 148.55 474.334 273.858 781.543 11.238 27.55 17.283 44.116 19.438 48.125 8.329 15.516 17.779 23.591 23.383 28.012 22.23 17.542 44.142 20.108 62.02 18.533 8.476-.745 86.097-14.579 79.655-99.933-4.55-60.292-68.075-577.246 317.617-1973.718 7.275-26.338 17.146-54.963 31.492-110.796H816.342c-72.391 0-131.087 58.683-131.087 131.087v2461.54c0 72.417 58.696 131.092 131.087 131.092h1598.96c-27.35-55-49.688-98.625-62.867-125.746-130.096-267.709-298.904-667.68-449.492-1189.78ZM860.255 1039.105h2459.143c-182.608 682.617-255.754 1164.75-283.316 1475.422-123.276-348.95-188.238-609.492-202.342-703.75a.244.244 0 0 1-.009-.055c-14.558-96.866-150.725-105.725-177.591-11.425l-.005.004c-59.312 208.234-112.066 448.667-152.516 663.36-48.805-253.068-104.913-516.851-151.3-856.16a.367.367 0 0 0-.009-.07c-5.146-37.417-27.775-59.934-54.066-71.25-30.996-13.338-74.592-9.909-104.463 23.091-76.721 84.721-208.504 268.967-352.78 488.063-45.77-176.217-88.912-364.53-127.616-564.642-18.18-94.234-147.192-102.059-176.492-10.717-34.521 107.454-297.046 852.255-311.875 1598.122-.384 17.913 10.57 83.88 82.983 89.7 48.25 3.967 92.45-22.55 114.317-65.896l-.004.005c87.058-172.563 218.433-399.647 356.712-623.638 119.846 389.287 247.38 705.321 356.65 943.555H860.256V1039.105Zm747.705 790.392c-64.734 224.859-144.292 546.984-183.817 893.584 87.525-153.025 188.337-319.467 289.013-478.533-36.588-131.205-71.93-269.592-105.196-415.05ZM3830.77 2920.832c0-82.259-66.78-149.038-149.038-149.038-82.258 0-149.038 66.78-149.038 149.038 0 82.262 66.78 149.041 149.038 149.041 82.259 0 149.038-66.779 149.038-149.041Z"/></svg>