<?xml version="1.0" encoding="UTF-8" standalone="no"?>
<!DOCTYPE svg PUBLIC "-//W3C//DTD SVG 1.1//EN" "http://www.w3.org/Graphics/SVG/1.1/DTD/svg11.dtd">
<svg width="100%" height="100%" viewBox="0 0 100 100" version="1.1" xmlns="http://www.w3.org/2000/svg" xmlns:xlink="http://www.w3.org/1999/xlink" xml:space="preserve" xmlns:serif="http://www.serif.com/" style="fill-rule:evenodd;clip-rule:evenodd;stroke-linejoin:round;stroke-miterlimit:2;">
    <g id="AW">
    </g>
    <g transform="matrix(0.0847768,0,0,0.0847768,4.05749,4.70961)">
        <g id="Layer-4" serif:id="Layer 4">
            <g>
                <g transform="matrix(1,0,0,1,322.606,335.624)">
                    <path d="M134.1,209.727C160.637,168.285 186.504,129.922 207.169,101.772C224.917,213.49 246.112,291.602 257.066,388.054C258.481,400.534 268.376,407.28 278.411,407.485C289.253,407.706 299.645,400.815 300.66,387.288C300.66,387.286 300.66,387.285 300.661,387.283C303.104,354.604 316.549,269.373 335.53,185.737C349.571,234.39 371.182,299.577 401.256,373.307C403.953,379.919 405.404,383.895 405.921,384.857C407.92,388.581 410.188,390.519 411.533,391.58C416.868,395.79 422.127,396.406 426.418,396.028C428.452,395.849 447.081,392.529 445.535,372.044C444.443,357.574 429.197,233.505 521.763,-101.648C523.509,-107.969 525.878,-114.839 529.321,-128.239L-126.684,-128.239C-144.058,-128.239 -158.145,-114.155 -158.145,-96.778C-158.145,-96.778 -158.145,493.991 -158.145,493.991C-158.145,511.371 -144.058,525.453 -126.684,525.453L257.066,525.453C250.502,512.253 245.141,501.783 241.978,495.274C210.755,431.024 170.241,335.031 134.1,209.727ZM-116.145,-86.239L474.049,-86.239C430.223,77.589 412.668,193.301 406.053,267.862C376.467,184.114 360.876,121.584 357.491,98.962C357.49,98.958 357.489,98.953 357.489,98.949C353.995,75.701 321.315,73.575 314.867,96.207C314.867,96.207 314.866,96.208 314.866,96.208C300.631,146.184 287.97,203.888 278.262,255.414C266.549,194.678 253.083,131.37 241.95,49.936C241.95,49.93 241.949,49.924 241.948,49.919C240.713,40.939 235.282,35.535 228.972,32.819C221.533,29.618 211.07,30.441 203.901,38.361C185.488,58.694 153.86,102.913 119.234,155.496C108.249,113.204 97.895,68.009 88.606,19.982C84.243,-2.634 53.28,-4.512 46.248,17.41C37.963,43.199 -25.043,221.951 -28.602,400.959C-28.694,405.258 -26.065,421.09 -8.686,422.487C2.894,423.439 13.502,417.075 18.75,406.672L18.749,406.673C39.643,365.258 71.173,310.758 104.36,257C133.123,350.429 163.731,426.277 189.956,483.453L-116.145,483.453L-116.145,-86.239ZM63.304,103.455C47.768,157.421 28.674,234.731 19.188,317.915C40.194,281.189 64.389,241.243 88.551,203.067C79.77,171.578 71.288,138.365 63.304,103.455Z" style="fill:white;"/>
                </g>
                <g transform="matrix(0,-1,-1,0,883.615,686.23)">
                    <path d="M-14.769,-35.769C4.973,-35.769 21,-19.742 21,0C21,19.742 4.973,35.769 -14.769,35.769C-34.512,35.769 -50.539,19.742 -50.539,0C-50.539,-19.742 -34.512,-35.769 -14.769,-35.769Z" style="fill:white;"/>
                </g>
            </g>
        </g>
    </g>
</svg>
